<svg width="12" height="13" viewBox="0 0 12 13" fill="none" xmlns="http://www.w3.org/2000/svg">
<path fill-rule="evenodd" clip-rule="evenodd" d="M6.50015 7C6.50015 7.276 6.27615 7.5 6.00015 7.5C5.72415 7.5 5.50015 7.276 5.50015 7V5C5.50015 4.724 5.72415 4.5 6.00015 4.5C6.27615 4.5 6.50015 4.724 6.50015 5V7ZM6.00015 9C5.72415 9 5.50015 8.776 5.50015 8.5C5.50015 8.224 5.72415 8 6.00015 8C6.27615 8 6.50015 8.224 6.50015 8.5C6.50015 8.776 6.27615 9 6.00015 9ZM11.2807 8.6515L7.44465 2.292C7.14515 1.796 6.60515 1.5 6.00015 1.5C5.39515 1.5 4.85515 1.796 4.55565 2.292L0.719651 8.6515C0.435651 9.123 0.427151 9.69 0.697151 10.168C0.986651 10.6815 1.54915 11 2.16415 11H9.83615C10.4512 11 11.0137 10.6815 11.3032 10.168C11.5732 9.69 11.5647 9.123 11.2807 8.6515Z" fill="white"/>
<mask id="mask0_1_1638" style="mask-type:luminance" maskUnits="userSpaceOnUse" x="0" y="1" width="12" height="10">
<path fill-rule="evenodd" clip-rule="evenodd" d="M6.50015 7C6.50015 7.276 6.27615 7.5 6.00015 7.5C5.72415 7.5 5.50015 7.276 5.50015 7V5C5.50015 4.724 5.72415 4.5 6.00015 4.5C6.27615 4.5 6.50015 4.724 6.50015 5V7ZM6.00015 9C5.72415 9 5.50015 8.776 5.50015 8.5C5.50015 8.224 5.72415 8 6.00015 8C6.27615 8 6.50015 8.224 6.50015 8.5C6.50015 8.776 6.27615 9 6.00015 9ZM11.2807 8.6515L7.44465 2.292C7.14515 1.796 6.60515 1.5 6.00015 1.5C5.39515 1.5 4.85515 1.796 4.55565 2.292L0.719651 8.6515C0.435651 9.123 0.427151 9.69 0.697151 10.168C0.986651 10.6815 1.54915 11 2.16415 11H9.83615C10.4512 11 11.0137 10.6815 11.3032 10.168C11.5732 9.69 11.5647 9.123 11.2807 8.6515Z" fill="white"/>
</mask>
<g mask="url(#mask0_1_1638)">
<rect y="0.5" width="12" height="12" fill="white"/>
</g>
</svg>
