<svg width="20" height="20" viewBox="0 0 20 20" fill="none" xmlns="http://www.w3.org/2000/svg">
<path fill-rule="evenodd" clip-rule="evenodd" d="M8.33291 15.8333C8.14458 15.8333 7.95541 15.7699 7.79958 15.6399C7.44625 15.3458 7.39875 14.8199 7.69291 14.4666L11.4229 9.99077L7.82708 5.52244C7.53875 5.16411 7.59541 4.63911 7.95375 4.35077C8.31291 4.06244 8.83708 4.11911 9.12625 4.47744L13.1496 9.47744C13.3979 9.78661 13.3946 10.2283 13.1404 10.5333L8.97375 15.5333C8.80875 15.7308 8.57208 15.8333 8.33291 15.8333Z" fill="white" fill-opacity="0.6"/>
<mask id="mask0_1_2174" style="mask-type:luminance" maskUnits="userSpaceOnUse" x="7" y="4" width="7" height="12">
<path fill-rule="evenodd" clip-rule="evenodd" d="M8.33291 15.8333C8.14458 15.8333 7.95541 15.7699 7.79958 15.6399C7.44625 15.3458 7.39875 14.8199 7.69291 14.4666L11.4229 9.99077L7.82708 5.52244C7.53875 5.16411 7.59541 4.63911 7.95375 4.35077C8.31291 4.06244 8.83708 4.11911 9.12625 4.47744L13.1496 9.47744C13.3979 9.78661 13.3946 10.2283 13.1404 10.5333L8.97375 15.5333C8.80875 15.7308 8.57208 15.8333 8.33291 15.8333Z" fill="white"/>
</mask>
<g mask="url(#mask0_1_2174)">
<rect width="20" height="20" fill="white" fill-opacity="0.6"/>
</g>
</svg>
