<svg width="21" height="21" viewBox="0 0 21 21" fill="none" xmlns="http://www.w3.org/2000/svg">
<path fill-rule="evenodd" clip-rule="evenodd" d="M16.3022 9.4948H6.41475L9.44225 5.86146C9.73725 5.50813 9.68891 4.9823 9.33558 4.68813C8.98141 4.39313 8.45641 4.44146 8.16225 4.7948L3.99558 9.7948C3.96308 9.83396 3.94641 9.8798 3.92225 9.92313C3.90225 9.95813 3.87808 9.98813 3.86308 10.0265C3.82558 10.1223 3.80308 10.2231 3.80308 10.3248C3.80308 10.3256 3.80225 10.3273 3.80225 10.3281C3.80225 10.329 3.80308 10.3306 3.80308 10.3315C3.80308 10.4331 3.82558 10.534 3.86308 10.6298C3.87808 10.6681 3.90225 10.6981 3.92225 10.7331C3.94641 10.7765 3.96308 10.8223 3.99558 10.8615L8.16225 15.8615C8.32725 16.059 8.56391 16.1615 8.80225 16.1615C8.99058 16.1615 9.17975 16.0981 9.33558 15.9681C9.68891 15.674 9.73725 15.1481 9.44225 14.7948L6.41475 11.1615H16.3022C16.7622 11.1615 17.1356 10.7881 17.1356 10.3281C17.1356 9.86813 16.7622 9.4948 16.3022 9.4948Z" fill="white"/>
<mask id="mask0_1_1633" style="mask-type:luminance" maskUnits="userSpaceOnUse" x="3" y="4" width="15" height="13">
<path fill-rule="evenodd" clip-rule="evenodd" d="M16.3022 9.4948H6.41475L9.44225 5.86146C9.73725 5.50813 9.68891 4.9823 9.33558 4.68813C8.98141 4.39313 8.45641 4.44146 8.16225 4.7948L3.99558 9.7948C3.96308 9.83396 3.94641 9.8798 3.92225 9.92313C3.90225 9.95813 3.87808 9.98813 3.86308 10.0265C3.82558 10.1223 3.80308 10.2231 3.80308 10.3248C3.80308 10.3256 3.80225 10.3273 3.80225 10.3281C3.80225 10.329 3.80308 10.3306 3.80308 10.3315C3.80308 10.4331 3.82558 10.534 3.86308 10.6298C3.87808 10.6681 3.90225 10.6981 3.92225 10.7331C3.94641 10.7765 3.96308 10.8223 3.99558 10.8615L8.16225 15.8615C8.32725 16.059 8.56391 16.1615 8.80225 16.1615C8.99058 16.1615 9.17975 16.0981 9.33558 15.9681C9.68891 15.674 9.73725 15.1481 9.44225 14.7948L6.41475 11.1615H16.3022C16.7622 11.1615 17.1356 10.7881 17.1356 10.3281C17.1356 9.86813 16.7622 9.4948 16.3022 9.4948Z" fill="white"/>
</mask>
<g mask="url(#mask0_1_1633)">
<rect x="0.46875" y="0.328125" width="20" height="20" fill="white"/>
</g>
</svg>
