<svg width="21" height="21" viewBox="0 0 21 21" fill="none" xmlns="http://www.w3.org/2000/svg">
<path fill-rule="evenodd" clip-rule="evenodd" d="M15.2246 6.07232C14.8987 5.74648 14.3721 5.74648 14.0463 6.07232L7.13542 12.9832V8.32815C7.13542 7.86815 6.76292 7.49482 6.30208 7.49482C5.84125 7.49482 5.46875 7.86815 5.46875 8.32815V14.9948C5.46875 15.4548 5.84125 15.8281 6.30208 15.8281H12.9688C13.4296 15.8281 13.8021 15.4548 13.8021 14.9948C13.8021 14.5348 13.4296 14.1615 12.9688 14.1615H8.31375L15.2246 7.25065C15.5504 6.92482 15.5504 6.39815 15.2246 6.07232Z" fill="white"/>
<mask id="mask0_1_1615" style="mask-type:luminance" maskUnits="userSpaceOnUse" x="5" y="5" width="11" height="11">
<path fill-rule="evenodd" clip-rule="evenodd" d="M15.2246 6.07232C14.8987 5.74648 14.3721 5.74648 14.0463 6.07232L7.13542 12.9832V8.32815C7.13542 7.86815 6.76292 7.49482 6.30208 7.49482C5.84125 7.49482 5.46875 7.86815 5.46875 8.32815V14.9948C5.46875 15.4548 5.84125 15.8281 6.30208 15.8281H12.9688C13.4296 15.8281 13.8021 15.4548 13.8021 14.9948C13.8021 14.5348 13.4296 14.1615 12.9688 14.1615H8.31375L15.2246 7.25065C15.5504 6.92482 15.5504 6.39815 15.2246 6.07232Z" fill="white"/>
</mask>
<g mask="url(#mask0_1_1615)">
<rect x="0.46875" y="0.828125" width="20" height="20" fill="white"/>
</g>
</svg>
