<svg width="20" height="20" viewBox="0 0 20 20" fill="none" xmlns="http://www.w3.org/2000/svg">
<path fill-rule="evenodd" clip-rule="evenodd" d="M11.6665 15.2845C11.6665 16.0336 10.9031 16.667 9.99979 16.667C9.09646 16.667 8.33312 16.0336 8.33312 15.2845V15.0003H11.6665V15.2845ZM17.1006 12.6728L15.5998 11.1703V7.44696C15.5998 4.54613 13.5148 2.0828 10.749 1.71613C9.14812 1.50363 7.53146 1.99196 6.31896 3.0553C5.09896 4.12363 4.39979 5.66113 4.39979 7.2728L4.39896 11.1703L2.89896 12.6736C2.50812 13.0645 2.39229 13.6478 2.60396 14.1586C2.81646 14.6695 3.31062 15.0003 3.86396 15.0003H6.66646V15.2845C6.66646 16.9661 8.16146 18.3336 9.99979 18.3336C11.8381 18.3336 13.3331 16.9661 13.3331 15.2845V15.0003H16.1348C16.6881 15.0003 17.1823 14.6703 17.394 14.1586C17.6065 13.6478 17.4906 13.0645 17.1006 12.6728Z" fill="white"/>
<mask id="mask0_1_1626" style="mask-type:luminance" maskUnits="userSpaceOnUse" x="2" y="1" width="16" height="18">
<path fill-rule="evenodd" clip-rule="evenodd" d="M11.6665 15.2845C11.6665 16.0336 10.9031 16.667 9.99979 16.667C9.09646 16.667 8.33312 16.0336 8.33312 15.2845V15.0003H11.6665V15.2845ZM17.1006 12.6728L15.5998 11.1703V7.44696C15.5998 4.54613 13.5148 2.0828 10.749 1.71613C9.14812 1.50363 7.53146 1.99196 6.31896 3.0553C5.09896 4.12363 4.39979 5.66113 4.39979 7.2728L4.39896 11.1703L2.89896 12.6736C2.50812 13.0645 2.39229 13.6478 2.60396 14.1586C2.81646 14.6695 3.31062 15.0003 3.86396 15.0003H6.66646V15.2845C6.66646 16.9661 8.16146 18.3336 9.99979 18.3336C11.8381 18.3336 13.3331 16.9661 13.3331 15.2845V15.0003H16.1348C16.6881 15.0003 17.1823 14.6703 17.394 14.1586C17.6065 13.6478 17.4906 13.0645 17.1006 12.6728Z" fill="white"/>
</mask>
<g mask="url(#mask0_1_1626)">
<rect width="20" height="20" fill="white"/>
</g>
</svg>
