<svg width="20" height="21" viewBox="0 0 20 21" fill="none" xmlns="http://www.w3.org/2000/svg">
<path d="M16.5089 7.59794L12.7429 3.83199C11.9531 3.04222 10.8641 2.61824 9.75011 2.67644L5.59343 2.87596C3.93076 2.95078 2.60894 4.2726 2.52581 5.92696L2.32629 10.0836C2.27641 11.1976 2.69208 12.2867 3.48184 13.0764L7.24779 16.8424C8.79407 18.3887 11.3047 18.3887 12.8593 16.8424L16.5089 13.1928C18.0635 11.6549 18.0635 9.14422 16.5089 7.59794ZM7.92117 10.6573C6.60766 10.6573 5.52693 9.58483 5.52693 8.26301C5.52693 6.94118 6.60766 5.86876 7.92117 5.86876C9.23468 5.86876 10.3154 6.94118 10.3154 8.26301C10.3154 9.58483 9.23468 10.6573 7.92117 10.6573ZM14.5968 11.6133L11.2715 14.9386C11.1468 15.0633 10.9888 15.1215 10.8308 15.1215C10.6729 15.1215 10.5149 15.0633 10.3902 14.9386C10.1492 14.6975 10.1492 14.2985 10.3902 14.0574L13.7156 10.7321C13.9567 10.491 14.3557 10.491 14.5968 10.7321C14.8379 10.9732 14.8379 11.3722 14.5968 11.6133Z" fill="black" fill-opacity="0.7"/>
</svg>
