<svg width="20" height="21" viewBox="0 0 20 21" fill="none" xmlns="http://www.w3.org/2000/svg">
<path fill-rule="evenodd" clip-rule="evenodd" d="M13.5793 8.69202L9.77264 13.692C9.61597 13.8979 9.37347 14.0195 9.11514 14.0212H9.1093C8.85347 14.0212 8.6118 13.9029 8.45347 13.7012L6.4268 11.112C6.14347 10.7504 6.2068 10.2262 6.5693 9.94286C6.93097 9.65869 7.45597 9.72202 7.7393 10.0854L9.10014 11.8237L12.2535 7.68286C12.5318 7.31702 13.0543 7.24536 13.4218 7.52452C13.7876 7.80369 13.8585 8.32619 13.5793 8.69202ZM10.0003 2.35455C5.39783 2.35455 1.66699 6.08539 1.66699 10.6879C1.66699 15.2896 5.39783 19.0212 10.0003 19.0212C14.6028 19.0212 18.3337 15.2896 18.3337 10.6879C18.3337 6.08539 14.6028 2.35455 10.0003 2.35455Z" fill="black" fill-opacity="0.4"/>
<mask id="mask0_1_1934" style="mask-type:luminance" maskUnits="userSpaceOnUse" x="1" y="2" width="18" height="18">
<path fill-rule="evenodd" clip-rule="evenodd" d="M13.5793 8.69202L9.77264 13.692C9.61597 13.8979 9.37347 14.0195 9.11514 14.0212H9.1093C8.85347 14.0212 8.6118 13.9029 8.45347 13.7012L6.4268 11.112C6.14347 10.7504 6.2068 10.2262 6.5693 9.94286C6.93097 9.65869 7.45597 9.72202 7.7393 10.0854L9.10014 11.8237L12.2535 7.68286C12.5318 7.31702 13.0543 7.24536 13.4218 7.52452C13.7876 7.80369 13.8585 8.32619 13.5793 8.69202ZM10.0003 2.35455C5.39783 2.35455 1.66699 6.08539 1.66699 10.6879C1.66699 15.2896 5.39783 19.0212 10.0003 19.0212C14.6028 19.0212 18.3337 15.2896 18.3337 10.6879C18.3337 6.08539 14.6028 2.35455 10.0003 2.35455Z" fill="white"/>
</mask>
<g mask="url(#mask0_1_1934)">
<rect y="0.6875" width="20" height="20" fill="black" fill-opacity="0.4"/>
</g>
</svg>
