<svg width="18" height="18" viewBox="0 0 18 18" fill="none" xmlns="http://www.w3.org/2000/svg">
<path fill-rule="evenodd" clip-rule="evenodd" d="M14.25 14.25C14.25 14.664 13.9132 15 13.5 15H4.5C4.08675 15 3.75 14.664 3.75 14.25V6C3.75 5.586 4.08675 5.25 4.5 5.25V6C4.5 6.82725 5.17275 7.5 6 7.5H12C12.8273 7.5 13.5 6.82725 13.5 6V5.25C13.9132 5.25 14.25 5.586 14.25 6V14.25ZM6 3L12 3.00225V3.75V6H6V3.75V3ZM13.5 3.75V3C13.5 2.17275 12.8273 1.5 12 1.5H6C5.17275 1.5 4.5 2.17275 4.5 3V3.75C3.2595 3.75 2.25 4.7595 2.25 6V14.25C2.25 15.4905 3.2595 16.5 4.5 16.5H13.5C14.7405 16.5 15.75 15.4905 15.75 14.25V6C15.75 4.7595 14.7405 3.75 13.5 3.75Z" fill="white" fill-opacity="0.6"/>
<mask id="mask0_3253_395" style="mask-type:luminance" maskUnits="userSpaceOnUse" x="2" y="1" width="14" height="16">
<path fill-rule="evenodd" clip-rule="evenodd" d="M14.25 14.25C14.25 14.664 13.9132 15 13.5 15H4.5C4.08675 15 3.75 14.664 3.75 14.25V6C3.75 5.586 4.08675 5.25 4.5 5.25V6C4.5 6.82725 5.17275 7.5 6 7.5H12C12.8273 7.5 13.5 6.82725 13.5 6V5.25C13.9132 5.25 14.25 5.586 14.25 6V14.25ZM6 3L12 3.00225V3.75V6H6V3.75V3ZM13.5 3.75V3C13.5 2.17275 12.8273 1.5 12 1.5H6C5.17275 1.5 4.5 2.17275 4.5 3V3.75C3.2595 3.75 2.25 4.7595 2.25 6V14.25C2.25 15.4905 3.2595 16.5 4.5 16.5H13.5C14.7405 16.5 15.75 15.4905 15.75 14.25V6C15.75 4.7595 14.7405 3.75 13.5 3.75Z" fill="white"/>
</mask>
<g mask="url(#mask0_3253_395)">
<rect width="18" height="18" fill="white" fill-opacity="0.6"/>
</g>
</svg>
