<svg width="20" height="20" viewBox="0 0 20 20" fill="none" xmlns="http://www.w3.org/2000/svg">
<path fill-rule="evenodd" clip-rule="evenodd" d="M13.3332 9.16669H10.8332V6.66669C10.8332 6.20585 10.4598 5.83335 9.99984 5.83335C9.53984 5.83335 9.1665 6.20585 9.1665 6.66669V10C9.1665 10.4609 9.53984 10.8334 9.99984 10.8334H13.3332C13.794 10.8334 14.1665 10.4609 14.1665 10C14.1665 9.53919 13.794 9.16669 13.3332 9.16669ZM9.99984 16.6667C6.324 16.6667 3.33317 13.6759 3.33317 10C3.33317 6.32419 6.324 3.33335 9.99984 3.33335C13.6757 3.33335 16.6665 6.32419 16.6665 10C16.6665 13.6759 13.6757 16.6667 9.99984 16.6667ZM9.99984 1.66669C5.40484 1.66669 1.6665 5.40502 1.6665 10C1.6665 14.595 5.40484 18.3334 9.99984 18.3334C14.5948 18.3334 18.3332 14.595 18.3332 10C18.3332 5.40502 14.5948 1.66669 9.99984 1.66669Z" fill="black" fill-opacity="0.4"/>
<mask id="mask0_1_1665" style="mask-type:luminance" maskUnits="userSpaceOnUse" x="1" y="1" width="18" height="18">
<path fill-rule="evenodd" clip-rule="evenodd" d="M13.3332 9.16669H10.8332V6.66669C10.8332 6.20585 10.4598 5.83335 9.99984 5.83335C9.53984 5.83335 9.1665 6.20585 9.1665 6.66669V10C9.1665 10.4609 9.53984 10.8334 9.99984 10.8334H13.3332C13.794 10.8334 14.1665 10.4609 14.1665 10C14.1665 9.53919 13.794 9.16669 13.3332 9.16669ZM9.99984 16.6667C6.324 16.6667 3.33317 13.6759 3.33317 10C3.33317 6.32419 6.324 3.33335 9.99984 3.33335C13.6757 3.33335 16.6665 6.32419 16.6665 10C16.6665 13.6759 13.6757 16.6667 9.99984 16.6667ZM9.99984 1.66669C5.40484 1.66669 1.6665 5.40502 1.6665 10C1.6665 14.595 5.40484 18.3334 9.99984 18.3334C14.5948 18.3334 18.3332 14.595 18.3332 10C18.3332 5.40502 14.5948 1.66669 9.99984 1.66669Z" fill="white"/>
</mask>
<g mask="url(#mask0_1_1665)">
<rect width="20" height="20" fill="black" fill-opacity="0.4"/>
</g>
</svg>
