<svg width="16" height="16" viewBox="0 0 16 16" fill="none" xmlns="http://www.w3.org/2000/svg">
<path d="M7.99886 0.997375C4.14814 0.997375 0.997559 4.14796 0.997559 7.99868C0.997559 9.60898 1.55766 11.1493 2.60786 12.4095L1.2076 13.8098C0.927546 14.0898 0.927546 14.5099 1.2076 14.7899C1.34762 14.93 1.48765 15 1.69769 15H7.99886C11.8496 15 15.0002 11.8494 15.0002 7.99868C15.0002 4.14796 11.8496 0.997375 7.99886 0.997375ZM8.69899 10.0991H4.49821C4.07813 10.0991 3.79808 9.81902 3.79808 9.39894C3.79808 8.97886 4.07813 8.69881 4.49821 8.69881H8.69899C9.11907 8.69881 9.39912 8.97886 9.39912 9.39894C9.39912 9.81902 9.11907 10.0991 8.69899 10.0991ZM11.4995 7.29855H4.49821C4.07813 7.29855 3.79808 7.0185 3.79808 6.59842C3.79808 6.17834 4.07813 5.89829 4.49821 5.89829H11.4995C11.9196 5.89829 12.1996 6.17834 12.1996 6.59842C12.1996 7.0185 11.9196 7.29855 11.4995 7.29855Z" fill="black" fill-opacity="0.6"/>
</svg>
