<svg width="20" height="21" viewBox="0 0 20 21" fill="none" xmlns="http://www.w3.org/2000/svg">
<path fill-rule="evenodd" clip-rule="evenodd" d="M7.5 10.5156V11.349H4.7225C4.41583 11.349 4.16667 11.0998 4.16667 10.7931V5.23813C4.16667 4.93146 4.41583 4.68229 4.7225 4.68229H10.2775C10.5842 4.68229 10.8333 4.93146 10.8333 5.23813V8.01562H10C8.62167 8.01562 7.5 9.13729 7.5 10.5156ZM15 8.01562H12.5V5.23812C12.5 4.01229 11.5033 3.01562 10.2775 3.01562H4.7225C3.49667 3.01562 2.5 4.01229 2.5 5.23812V10.7931C2.5 12.019 3.49667 13.0156 4.7225 13.0156H7.5V15.5156C7.5 16.894 8.62167 18.0156 10 18.0156H15C16.3783 18.0156 17.5 16.894 17.5 15.5156V10.5156C17.5 9.13729 16.3783 8.01562 15 8.01562Z" fill="black" fill-opacity="0.4"/>
<mask id="mask0_1_1937" style="mask-type:luminance" maskUnits="userSpaceOnUse" x="2" y="3" width="16" height="16">
<path fill-rule="evenodd" clip-rule="evenodd" d="M7.5 10.5156V11.349H4.7225C4.41583 11.349 4.16667 11.0998 4.16667 10.7931V5.23813C4.16667 4.93146 4.41583 4.68229 4.7225 4.68229H10.2775C10.5842 4.68229 10.8333 4.93146 10.8333 5.23813V8.01562H10C8.62167 8.01562 7.5 9.13729 7.5 10.5156ZM15 8.01562H12.5V5.23812C12.5 4.01229 11.5033 3.01562 10.2775 3.01562H4.7225C3.49667 3.01562 2.5 4.01229 2.5 5.23812V10.7931C2.5 12.019 3.49667 13.0156 4.7225 13.0156H7.5V15.5156C7.5 16.894 8.62167 18.0156 10 18.0156H15C16.3783 18.0156 17.5 16.894 17.5 15.5156V10.5156C17.5 9.13729 16.3783 8.01562 15 8.01562Z" fill="white"/>
</mask>
<g mask="url(#mask0_1_1937)">
<rect y="0.515625" width="20" height="20" fill="black" fill-opacity="0.4"/>
</g>
</svg>
