<svg width="20" height="20" viewBox="0 0 20 20" fill="none" xmlns="http://www.w3.org/2000/svg">
<path fill-rule="evenodd" clip-rule="evenodd" d="M10 8.75246L17.0934 5.7708C16.9717 5.64663 16.8342 5.5358 16.6675 5.4583L10.6675 2.64663C10.2467 2.4508 9.75337 2.4508 9.33254 2.64663L3.33254 5.4583C3.16587 5.5358 3.02837 5.64663 2.90671 5.7708L10 8.75246ZM9.37504 9.85596L2.50004 6.96596V13.4068C2.49587 13.941 2.81587 14.431 3.32504 14.6718L9.32504 17.4826C9.33314 17.4865 9.34167 17.489 9.35031 17.4916C9.35856 17.494 9.3669 17.4965 9.37504 17.5001V9.85596ZM10.625 17.4976V9.85596L17.5 6.96596V13.4143C17.5 13.9468 17.1775 14.4343 16.6675 14.6718L10.6675 17.4826C10.66 17.4864 10.6519 17.4888 10.6438 17.4913C10.6375 17.4932 10.6312 17.4951 10.625 17.4976Z" fill="#121212"/>
<mask id="mask0_1_1521" style="mask-type:luminance" maskUnits="userSpaceOnUse" x="2" y="2" width="16" height="16">
<path fill-rule="evenodd" clip-rule="evenodd" d="M10 8.75246L17.0934 5.7708C16.9717 5.64663 16.8342 5.5358 16.6675 5.4583L10.6675 2.64663C10.2467 2.4508 9.75337 2.4508 9.33254 2.64663L3.33254 5.4583C3.16587 5.5358 3.02837 5.64663 2.90671 5.7708L10 8.75246ZM9.37504 9.85596L2.50004 6.96596V13.4068C2.49587 13.941 2.81587 14.431 3.32504 14.6718L9.32504 17.4826C9.33314 17.4865 9.34167 17.489 9.35031 17.4916C9.35856 17.494 9.3669 17.4965 9.37504 17.5001V9.85596ZM10.625 17.4976V9.85596L17.5 6.96596V13.4143C17.5 13.9468 17.1775 14.4343 16.6675 14.6718L10.6675 17.4826C10.66 17.4864 10.6519 17.4888 10.6438 17.4913C10.6375 17.4932 10.6312 17.4951 10.625 17.4976Z" fill="white"/>
</mask>
<g mask="url(#mask0_1_1521)">
<rect width="20" height="20" fill="#121212"/>
</g>
</svg>
