<svg width="20" height="21" viewBox="0 0 20 21" fill="none" xmlns="http://www.w3.org/2000/svg">
<path fill-rule="evenodd" clip-rule="evenodd" d="M14.9714 5.95103L12.7264 3.70603L11.1031 5.33019L13.3489 7.57603L14.9714 5.95103ZM4.24207 15.3402C4.21707 15.3427 4.19207 15.3435 4.16707 15.3435C3.94707 15.3435 3.73457 15.2568 3.57707 15.0993C3.4029 14.9243 3.31457 14.681 3.33623 14.4352L3.65207 10.9602C3.68707 10.5793 3.8554 10.2193 4.12707 9.9485L11.6237 2.45183C12.2087 1.86433 13.2696 1.8935 13.8871 2.50933L16.1687 4.791L16.1696 4.79183C16.8071 5.43017 16.8329 6.44517 16.2262 7.0535L8.72873 14.551C8.4579 14.8218 8.09873 14.9902 7.71707 15.0252L4.24207 15.3402ZM4.16657 17.0104H15.8332C16.2916 17.0104 16.6666 17.3854 16.6666 17.8437C16.6666 18.302 16.2916 18.677 15.8332 18.677H4.16657C3.70824 18.677 3.33324 18.302 3.33324 17.8437C3.33324 17.3854 3.70824 17.0104 4.16657 17.0104Z" fill="black" fill-opacity="0.4"/>
<mask id="mask0_1_1925" style="mask-type:luminance" maskUnits="userSpaceOnUse" x="3" y="2" width="14" height="17">
<path fill-rule="evenodd" clip-rule="evenodd" d="M14.9714 5.95103L12.7264 3.70603L11.1031 5.33019L13.3489 7.57603L14.9714 5.95103ZM4.24207 15.3402C4.21707 15.3427 4.19207 15.3435 4.16707 15.3435C3.94707 15.3435 3.73457 15.2568 3.57707 15.0993C3.4029 14.9243 3.31457 14.681 3.33623 14.4352L3.65207 10.9602C3.68707 10.5793 3.8554 10.2193 4.12707 9.9485L11.6237 2.45183C12.2087 1.86433 13.2696 1.8935 13.8871 2.50933L16.1687 4.791L16.1696 4.79183C16.8071 5.43017 16.8329 6.44517 16.2262 7.0535L8.72873 14.551C8.4579 14.8218 8.09873 14.9902 7.71707 15.0252L4.24207 15.3402ZM4.16657 17.0104H15.8332C16.2916 17.0104 16.6666 17.3854 16.6666 17.8437C16.6666 18.302 16.2916 18.677 15.8332 18.677H4.16657C3.70824 18.677 3.33324 18.302 3.33324 17.8437C3.33324 17.3854 3.70824 17.0104 4.16657 17.0104Z" fill="white"/>
</mask>
<g mask="url(#mask0_1_1925)">
<rect y="0.34375" width="20" height="20" fill="black" fill-opacity="0.4"/>
</g>
</svg>
