<svg width="20" height="21" viewBox="0 0 20 21" fill="none" xmlns="http://www.w3.org/2000/svg">
<path fill-rule="evenodd" clip-rule="evenodd" d="M11.2543 4.32122H8.74624C8.60768 2.90933 7.53326 1.84338 6.28356 1.84338C5.03386 1.84338 3.95944 2.90933 3.82089 4.32122H3.18622C2.15997 4.32122 1.32788 5.15317 1.32788 6.17957C1.32788 8.77114 1.32788 14.7381 1.32788 17.3296C1.32788 17.8225 1.52368 18.2952 1.87215 18.6437C2.22078 18.9922 2.69339 19.188 3.18622 19.188H16.8141C17.8405 19.188 18.6725 18.356 18.6725 17.3296V6.17957C18.6725 5.68674 18.4767 5.21397 18.1282 4.8655C17.7797 4.51702 17.307 4.32122 16.8141 4.32122H16.1796C16.0411 2.90933 14.9666 1.84338 13.7169 1.84338C12.4672 1.84338 11.3928 2.90933 11.2543 4.32122ZM10.5143 10.4502C10.3993 10.2791 10.2065 10.1763 10.0002 10.1763C9.7939 10.1763 9.60123 10.2791 9.48616 10.4502L8.53112 11.871L6.88477 12.3402C6.6863 12.3968 6.52916 12.5483 6.46538 12.7446C6.40175 12.9408 6.43981 13.1558 6.56707 13.3181L7.62306 14.6655L7.56062 16.3762C7.55318 16.5824 7.64878 16.7787 7.81558 16.9C7.98253 17.0211 8.1987 17.0515 8.39241 16.9806L10.0002 16.3926L11.6079 16.9806C11.8017 17.0515 12.018 17.0211 12.1848 16.9C12.3517 16.7787 12.4473 16.5824 12.4397 16.3762L12.3773 14.6655L13.4334 13.3181C13.5607 13.1558 13.5987 12.9408 13.535 12.7446C13.4712 12.5483 13.314 12.3968 13.1157 12.3402L11.4694 11.871L10.5143 10.4502ZM12.7235 5.56007C12.9448 5.93233 13.2989 6.17957 13.7169 6.17957C14.0587 6.17957 14.3363 6.45713 14.3363 6.79907C14.3363 7.14085 14.0587 7.41841 13.7169 7.41841C12.6578 7.41841 11.7246 6.65293 11.3802 5.56007H5.29017C5.51138 5.93233 5.86551 6.17957 6.28356 6.17957C6.62535 6.17957 6.90291 6.45713 6.90291 6.79907C6.90291 7.14085 6.62535 7.41841 6.28356 7.41841C5.22446 7.41841 4.29127 6.65293 3.94681 5.56007H3.18622C2.84414 5.56007 2.56688 5.83748 2.56688 6.17957V8.03791H17.4336V6.17957C17.4336 6.01529 17.3684 5.8577 17.2521 5.74159C17.136 5.62534 16.9784 5.56007 16.8141 5.56007H12.7235ZM14.931 4.32122C14.8192 3.62933 14.3388 3.08238 13.7169 3.08238C13.0949 3.08238 12.6146 3.62933 12.5028 4.32122H14.931ZM7.49758 4.32122C7.38578 3.62933 6.90544 3.08238 6.28356 3.08238C5.66154 3.08238 5.18119 3.62933 5.0694 4.32122H7.49758Z" fill="black" fill-opacity="0.7"/>
</svg>
