<svg width="20" height="20" viewBox="0 0 20 20" fill="none" xmlns="http://www.w3.org/2000/svg">
<path fill-rule="evenodd" clip-rule="evenodd" d="M11.5863 18.3334C11.408 18.3334 11.2313 18.2767 11.0838 18.1642L7.72881 15.6267C7.52048 15.4692 7.39798 15.2234 7.39798 14.9625V12.2342L3.42631 4.54921C3.29298 4.29087 3.30381 3.98171 3.45548 3.73337C3.60631 3.48504 3.87631 3.33337 4.16715 3.33337H15.8338C16.1271 3.33337 16.3988 3.48754 16.5496 3.74004C16.6996 3.99171 16.7063 4.30504 16.5671 4.56254L12.4196 12.2417V17.5C12.4196 17.8159 12.2405 18.105 11.9571 18.2467C11.8396 18.3042 11.713 18.3334 11.5863 18.3334Z" fill="white"/>
<mask id="mask0_1_1572" style="mask-type:luminance" maskUnits="userSpaceOnUse" x="3" y="3" width="14" height="16">
<path fill-rule="evenodd" clip-rule="evenodd" d="M11.5863 18.3334C11.408 18.3334 11.2313 18.2767 11.0838 18.1642L7.72881 15.6267C7.52048 15.4692 7.39798 15.2234 7.39798 14.9625V12.2342L3.42631 4.54921C3.29298 4.29087 3.30381 3.98171 3.45548 3.73337C3.60631 3.48504 3.87631 3.33337 4.16715 3.33337H15.8338C16.1271 3.33337 16.3988 3.48754 16.5496 3.74004C16.6996 3.99171 16.7063 4.30504 16.5671 4.56254L12.4196 12.2417V17.5C12.4196 17.8159 12.2405 18.105 11.9571 18.2467C11.8396 18.3042 11.713 18.3334 11.5863 18.3334Z" fill="white"/>
</mask>
<g mask="url(#mask0_1_1572)">
<rect width="20" height="20" fill="white"/>
</g>
</svg>
