<svg width="21" height="21" viewBox="0 0 21 21" fill="none" xmlns="http://www.w3.org/2000/svg">
<path fill-rule="evenodd" clip-rule="evenodd" d="M4.63346 3.33301H7.9668C8.88596 3.33301 9.63346 4.08051 9.63346 4.99967V8.33301C9.63346 9.25217 8.88596 9.99967 7.9668 9.99967H4.63346C3.7143 9.99967 2.9668 9.25217 2.9668 8.33301V4.99967C2.9668 4.08051 3.7143 3.33301 4.63346 3.33301ZM12.9668 3.33301H16.3001C17.2193 3.33301 17.9668 4.08051 17.9668 4.99967V8.33301C17.9668 9.25217 17.2193 9.99967 16.3001 9.99967H12.9668C12.0476 9.99967 11.3001 9.25217 11.3001 8.33301V4.99967C11.3001 4.08051 12.0476 3.33301 12.9668 3.33301ZM7.9668 11.6663H4.63346C3.7143 11.6663 2.9668 12.4138 2.9668 13.333V16.6663C2.9668 17.5855 3.7143 18.333 4.63346 18.333H7.9668C8.88596 18.333 9.63346 17.5855 9.63346 16.6663V13.333C9.63346 12.4138 8.88596 11.6663 7.9668 11.6663ZM12.9668 11.6663H16.3001C17.2193 11.6663 17.9668 12.4138 17.9668 13.333V16.6663C17.9668 17.5855 17.2193 18.333 16.3001 18.333H12.9668C12.0476 18.333 11.3001 17.5855 11.3001 16.6663V13.333C11.3001 12.4138 12.0476 11.6663 12.9668 11.6663Z" fill="white"/>
<mask id="mask0_1_1600" style="mask-type:luminance" maskUnits="userSpaceOnUse" x="2" y="3" width="16" height="16">
<path fill-rule="evenodd" clip-rule="evenodd" d="M4.63346 3.33301H7.9668C8.88596 3.33301 9.63346 4.08051 9.63346 4.99967V8.33301C9.63346 9.25217 8.88596 9.99967 7.9668 9.99967H4.63346C3.7143 9.99967 2.9668 9.25217 2.9668 8.33301V4.99967C2.9668 4.08051 3.7143 3.33301 4.63346 3.33301ZM12.9668 3.33301H16.3001C17.2193 3.33301 17.9668 4.08051 17.9668 4.99967V8.33301C17.9668 9.25217 17.2193 9.99967 16.3001 9.99967H12.9668C12.0476 9.99967 11.3001 9.25217 11.3001 8.33301V4.99967C11.3001 4.08051 12.0476 3.33301 12.9668 3.33301ZM7.9668 11.6663H4.63346C3.7143 11.6663 2.9668 12.4138 2.9668 13.333V16.6663C2.9668 17.5855 3.7143 18.333 4.63346 18.333H7.9668C8.88596 18.333 9.63346 17.5855 9.63346 16.6663V13.333C9.63346 12.4138 8.88596 11.6663 7.9668 11.6663ZM12.9668 11.6663H16.3001C17.2193 11.6663 17.9668 12.4138 17.9668 13.333V16.6663C17.9668 17.5855 17.2193 18.333 16.3001 18.333H12.9668C12.0476 18.333 11.3001 17.5855 11.3001 16.6663V13.333C11.3001 12.4138 12.0476 11.6663 12.9668 11.6663Z" fill="white"/>
</mask>
<g mask="url(#mask0_1_1600)">
<rect x="0.466797" y="0.833008" width="20" height="20" fill="white"/>
</g>
</svg>
