<svg width="16" height="16" viewBox="0 0 16 16" fill="none" xmlns="http://www.w3.org/2000/svg">
<path fill-rule="evenodd" clip-rule="evenodd" d="M7.33331 5.33331C7.33331 4.96531 7.63198 4.66665 7.99998 4.66665C8.36798 4.66665 8.66665 4.96531 8.66665 5.33331C8.66665 5.70131 8.36798 5.99998 7.99998 5.99998C7.63198 5.99998 7.33331 5.70131 7.33331 5.33331ZM7.33331 7.33331C7.33331 6.96531 7.63198 6.66665 7.99998 6.66665C8.36798 6.66665 8.66665 6.96531 8.66665 7.33331V10.6666C8.66665 11.0346 8.36798 11.3333 7.99998 11.3333C7.63198 11.3333 7.33331 11.0346 7.33331 10.6666V7.33331ZM7.99998 13.3333C5.05931 13.3333 2.66665 10.9406 2.66665 7.99998C2.66665 5.05931 5.05931 2.66665 7.99998 2.66665C10.9406 2.66665 13.3333 5.05931 13.3333 7.99998C13.3333 10.9406 10.9406 13.3333 7.99998 13.3333ZM7.99998 1.33331C4.31798 1.33331 1.33331 4.31798 1.33331 7.99998C1.33331 11.682 4.31798 14.6666 7.99998 14.6666C11.6813 14.6666 14.6666 11.682 14.6666 7.99998C14.6666 4.31798 11.6813 1.33331 7.99998 1.33331Z" fill="white" fill-opacity="0.5"/>
<mask id="mask0_1_2113" style="mask-type:luminance" maskUnits="userSpaceOnUse" x="1" y="1" width="14" height="14">
<path fill-rule="evenodd" clip-rule="evenodd" d="M7.33331 5.33331C7.33331 4.96531 7.63198 4.66665 7.99998 4.66665C8.36798 4.66665 8.66665 4.96531 8.66665 5.33331C8.66665 5.70131 8.36798 5.99998 7.99998 5.99998C7.63198 5.99998 7.33331 5.70131 7.33331 5.33331ZM7.33331 7.33331C7.33331 6.96531 7.63198 6.66665 7.99998 6.66665C8.36798 6.66665 8.66665 6.96531 8.66665 7.33331V10.6666C8.66665 11.0346 8.36798 11.3333 7.99998 11.3333C7.63198 11.3333 7.33331 11.0346 7.33331 10.6666V7.33331ZM7.99998 13.3333C5.05931 13.3333 2.66665 10.9406 2.66665 7.99998C2.66665 5.05931 5.05931 2.66665 7.99998 2.66665C10.9406 2.66665 13.3333 5.05931 13.3333 7.99998C13.3333 10.9406 10.9406 13.3333 7.99998 13.3333ZM7.99998 1.33331C4.31798 1.33331 1.33331 4.31798 1.33331 7.99998C1.33331 11.682 4.31798 14.6666 7.99998 14.6666C11.6813 14.6666 14.6666 11.682 14.6666 7.99998C14.6666 4.31798 11.6813 1.33331 7.99998 1.33331Z" fill="white"/>
</mask>
<g mask="url(#mask0_1_2113)">
<rect width="16" height="16" fill="white" fill-opacity="0.5"/>
</g>
</svg>
