<svg width="20" height="20" viewBox="0 0 20 20" fill="none" xmlns="http://www.w3.org/2000/svg">
<path fill-rule="evenodd" clip-rule="evenodd" d="M10 7.5C9.54 7.5 9.16667 7.12667 9.16667 6.66667C9.16667 6.20667 9.54 5.83333 10 5.83333C10.46 5.83333 10.8333 6.20667 10.8333 6.66667C10.8333 7.12667 10.46 7.5 10 7.5V7.5ZM10.8333 13.3333C10.8333 13.7933 10.46 14.1667 10 14.1667C9.54 14.1667 9.16667 13.7933 9.16667 13.3333V9.16667C9.16667 8.70667 9.54 8.33333 10 8.33333C10.46 8.33333 10.8333 8.70667 10.8333 9.16667V13.3333ZM10.0001 1.66669C5.39758 1.66669 1.66675 5.39752 1.66675 10C1.66675 14.6025 5.39758 18.3334 10.0001 18.3334C14.6017 18.3334 18.3334 14.6025 18.3334 10C18.3334 5.39752 14.6017 1.66669 10.0001 1.66669V1.66669Z" fill="black" fill-opacity="0.4"/>
<mask id="mask0_1_1931" style="mask-type:luminance" maskUnits="userSpaceOnUse" x="1" y="1" width="18" height="18">
<path fill-rule="evenodd" clip-rule="evenodd" d="M10 7.5C9.54 7.5 9.16667 7.12667 9.16667 6.66667C9.16667 6.20667 9.54 5.83333 10 5.83333C10.46 5.83333 10.8333 6.20667 10.8333 6.66667C10.8333 7.12667 10.46 7.5 10 7.5V7.5ZM10.8333 13.3333C10.8333 13.7933 10.46 14.1667 10 14.1667C9.54 14.1667 9.16667 13.7933 9.16667 13.3333V9.16667C9.16667 8.70667 9.54 8.33333 10 8.33333C10.46 8.33333 10.8333 8.70667 10.8333 9.16667V13.3333ZM10.0001 1.66669C5.39758 1.66669 1.66675 5.39752 1.66675 10C1.66675 14.6025 5.39758 18.3334 10.0001 18.3334C14.6017 18.3334 18.3334 14.6025 18.3334 10C18.3334 5.39752 14.6017 1.66669 10.0001 1.66669V1.66669Z" fill="white"/>
</mask>
<g mask="url(#mask0_1_1931)">
<rect width="20" height="20" fill="black" fill-opacity="0.4"/>
</g>
</svg>
