<svg width="20" height="20" viewBox="0 0 20 20" fill="none" xmlns="http://www.w3.org/2000/svg">
<path fill-rule="evenodd" clip-rule="evenodd" d="M9.60591 3.24973C11.4242 1.42723 14.3584 1.09807 16.3851 2.68307C18.8126 4.5814 18.9717 8.1189 16.8626 10.2331L15.6767 11.4206C15.3492 11.7489 14.8192 11.7489 14.4917 11.4206C14.1642 11.0931 14.1642 10.5606 14.4917 10.2331L15.6767 9.04473C17.0559 7.6639 16.9809 5.36807 15.4501 4.0864C14.0942 2.95057 12.0592 3.16723 10.8101 4.4189L9.74924 5.4814C9.42257 5.80973 8.89091 5.80973 8.56424 5.4814C8.23674 5.1539 8.23341 4.62473 8.71174 4.14557L9.60591 3.24973ZM11.0775 7.74415L7.74416 11.0775C7.41832 11.4033 7.41832 11.93 7.74416 12.2558C7.90666 12.4183 8.11999 12.5 8.33332 12.5C8.54666 12.5 8.75999 12.4183 8.92249 12.2558L12.2558 8.92248C12.5817 8.59665 12.5817 8.06998 12.2558 7.74415C11.93 7.41832 11.4033 7.41832 11.0775 7.74415ZM10.2336 14.4971L9.17191 15.5562C7.92107 16.8037 5.88191 17.0187 4.52524 15.8879C2.99274 14.6112 2.91691 12.3229 4.29774 10.9454L5.48524 9.76207C5.81274 9.4354 5.81274 8.9054 5.48524 8.5779C5.15774 8.25207 4.62607 8.25207 4.29774 8.5779L3.23524 9.63873C1.42524 11.4437 1.10774 14.3471 2.67274 16.3671C4.56524 18.8112 8.11524 18.9762 10.2336 16.8646L11.4211 15.6812C11.7486 15.3537 11.7486 14.8246 11.4211 14.4971C11.0927 14.1696 10.5619 14.1696 10.2336 14.4971Z" fill="white"/>
<mask id="mask0_1_1465" style="mask-type:luminance" maskUnits="userSpaceOnUse" x="1" y="1" width="18" height="18">
<path fill-rule="evenodd" clip-rule="evenodd" d="M9.60591 3.24973C11.4242 1.42723 14.3584 1.09807 16.3851 2.68307C18.8126 4.5814 18.9717 8.1189 16.8626 10.2331L15.6767 11.4206C15.3492 11.7489 14.8192 11.7489 14.4917 11.4206C14.1642 11.0931 14.1642 10.5606 14.4917 10.2331L15.6767 9.04473C17.0559 7.6639 16.9809 5.36807 15.4501 4.0864C14.0942 2.95057 12.0592 3.16723 10.8101 4.4189L9.74924 5.4814C9.42257 5.80973 8.89091 5.80973 8.56424 5.4814C8.23674 5.1539 8.23341 4.62473 8.71174 4.14557L9.60591 3.24973ZM11.0775 7.74415L7.74416 11.0775C7.41832 11.4033 7.41832 11.93 7.74416 12.2558C7.90666 12.4183 8.11999 12.5 8.33332 12.5C8.54666 12.5 8.75999 12.4183 8.92249 12.2558L12.2558 8.92248C12.5817 8.59665 12.5817 8.06998 12.2558 7.74415C11.93 7.41832 11.4033 7.41832 11.0775 7.74415ZM10.2336 14.4971L9.17191 15.5562C7.92107 16.8037 5.88191 17.0187 4.52524 15.8879C2.99274 14.6112 2.91691 12.3229 4.29774 10.9454L5.48524 9.76207C5.81274 9.4354 5.81274 8.9054 5.48524 8.5779C5.15774 8.25207 4.62607 8.25207 4.29774 8.5779L3.23524 9.63873C1.42524 11.4437 1.10774 14.3471 2.67274 16.3671C4.56524 18.8112 8.11524 18.9762 10.2336 16.8646L11.4211 15.6812C11.7486 15.3537 11.7486 14.8246 11.4211 14.4971C11.0927 14.1696 10.5619 14.1696 10.2336 14.4971Z" fill="white"/>
</mask>
<g mask="url(#mask0_1_1465)">
<rect width="20" height="20" fill="white"/>
</g>
</svg>
