<svg width="65" height="34" viewBox="0 0 65 34" fill="none" xmlns="http://www.w3.org/2000/svg">
<path d="M0.578125 13.9321V33.6689H7.43121V13.9321V7.90134L0.578125 13.9321Z" fill="#25ABE3"/>
<path d="M47.4532 7.90134H42.7931L37.0366 24.8113L34.0212 33.6689H40.326L45.2603 18.8663L48.2896 10.3684L47.4532 7.90134Z" fill="#25ABE3"/>
<path d="M58.1441 7.90134L52.9357 24.0746L49.9204 33.6689H56.7734L64.9972 7.90134H58.1441Z" fill="#25ABE3"/>
<path d="M16.2032 0.5V7.90134H23.0563V0.5H16.2032Z" fill="#25ABE3"/>
<path d="M7.43121 13.9321H16.2032V33.6689H23.0563V13.9321H27.7164L34.0212 33.6689L37.0366 24.8113L32.1023 7.90134H23.0563H16.2032H7.43121V13.9321Z" fill="#1375BE"/>
<path d="M45.2603 18.8663L49.9204 33.6689L52.9357 24.0746L48.2896 10.3684L45.2603 18.8663Z" fill="#0E75BE"/>
</svg>
