<svg width="21" height="21" viewBox="0 0 21 21" fill="none" xmlns="http://www.w3.org/2000/svg">
<path d="M17.1354 6.45315C18.4011 6.45315 19.4271 5.42713 19.4271 4.16148C19.4271 2.89583 18.4011 1.86981 17.1354 1.86981C15.8698 1.86981 14.8438 2.89583 14.8438 4.16148C14.8438 5.42713 15.8698 6.45315 17.1354 6.45315Z" fill="#FC5602"/>
<path d="M16.3353 7.61981C15.0269 7.33648 13.9603 6.26981 13.6769 4.96148C13.5686 4.45315 13.5603 3.96148 13.6519 3.49481C13.7603 2.97815 13.3769 2.49481 12.8436 2.49481H6.30192C4.00192 2.49481 2.13525 4.36148 2.13525 6.66148V12.4531C2.13525 14.7531 4.00192 16.6198 6.30192 16.6198H7.55192C7.78525 16.6198 8.08525 16.7698 8.21859 16.9531L9.46859 18.6115C10.0186 19.3448 10.9186 19.3448 11.4686 18.6115L12.7186 16.9531C12.8769 16.7448 13.1186 16.6198 13.3853 16.6198H14.6436C16.9436 16.6198 18.8019 14.7615 18.8019 12.4615V8.45314C18.8019 7.92814 18.3186 7.54481 17.8019 7.64481C17.3353 7.72815 16.8436 7.72814 16.3353 7.61981ZM7.13525 10.8281C6.66859 10.8281 6.30192 10.4531 6.30192 9.99481C6.30192 9.53648 6.66859 9.16148 7.13525 9.16148C7.59359 9.16148 7.96859 9.53648 7.96859 9.99481C7.96859 10.4531 7.60192 10.8281 7.13525 10.8281ZM10.4686 10.8281C10.0019 10.8281 9.63525 10.4531 9.63525 9.99481C9.63525 9.53648 10.0019 9.16148 10.4686 9.16148C10.9269 9.16148 11.3019 9.53648 11.3019 9.99481C11.3019 10.4531 10.9353 10.8281 10.4686 10.8281ZM13.8019 10.8281C13.3353 10.8281 12.9686 10.4531 12.9686 9.99481C12.9686 9.53648 13.3353 9.16148 13.8019 9.16148C14.2603 9.16148 14.6353 9.53648 14.6353 9.99481C14.6353 10.4531 14.2686 10.8281 13.8019 10.8281Z" fill="white"/>
</svg>
