<svg width="20" height="21" viewBox="0 0 20 21" fill="none" xmlns="http://www.w3.org/2000/svg">
<path fill-rule="evenodd" clip-rule="evenodd" d="M13.3331 11.0045C12.8731 11.0045 12.4998 10.6312 12.4998 10.1712C12.4998 9.7112 12.8731 9.33787 13.3331 9.33787C13.7931 9.33787 14.1664 9.7112 14.1664 10.1712C14.1664 10.6312 13.7931 11.0045 13.3331 11.0045ZM9.99975 11.0045C9.53975 11.0045 9.16642 10.6312 9.16642 10.1712C9.16642 9.7112 9.53975 9.33787 9.99975 9.33787C10.4598 9.33787 10.8331 9.7112 10.8331 10.1712C10.8331 10.6312 10.4598 11.0045 9.99975 11.0045ZM6.66642 11.0045C6.20642 11.0045 5.83309 10.6312 5.83309 10.1712C5.83309 9.7112 6.20642 9.33787 6.66642 9.33787C7.12642 9.33787 7.49975 9.7112 7.49975 10.1712C7.49975 10.6312 7.12642 11.0045 6.66642 11.0045ZM15.8923 4.2787C13.9889 2.37537 11.3548 1.5262 8.66392 1.94204C5.26642 2.47204 2.44975 5.20871 1.81392 8.59787C1.50809 10.2295 1.68392 11.8912 2.32309 13.402C2.40475 13.5937 2.42975 13.7737 2.39725 13.9345L1.68309 17.5079C1.62809 17.7812 1.71392 18.0637 1.91059 18.2604C2.06809 18.4179 2.28059 18.5045 2.49975 18.5045C2.55392 18.5045 2.60892 18.4995 2.66309 18.4879L6.23225 17.7745C6.43725 17.7354 6.63642 17.7929 6.76892 17.8479C8.28059 18.487 9.94226 18.662 11.5731 18.357C14.9623 17.7212 17.6989 14.9045 18.2289 11.507C18.6481 8.81704 17.7964 6.18287 15.8923 4.2787Z" fill="black" fill-opacity="0.4"/>
<mask id="mask0_1_1928" style="mask-type:luminance" maskUnits="userSpaceOnUse" x="1" y="1" width="18" height="18">
<path fill-rule="evenodd" clip-rule="evenodd" d="M13.3331 11.0045C12.8731 11.0045 12.4998 10.6312 12.4998 10.1712C12.4998 9.7112 12.8731 9.33787 13.3331 9.33787C13.7931 9.33787 14.1664 9.7112 14.1664 10.1712C14.1664 10.6312 13.7931 11.0045 13.3331 11.0045ZM9.99975 11.0045C9.53975 11.0045 9.16642 10.6312 9.16642 10.1712C9.16642 9.7112 9.53975 9.33787 9.99975 9.33787C10.4598 9.33787 10.8331 9.7112 10.8331 10.1712C10.8331 10.6312 10.4598 11.0045 9.99975 11.0045ZM6.66642 11.0045C6.20642 11.0045 5.83309 10.6312 5.83309 10.1712C5.83309 9.7112 6.20642 9.33787 6.66642 9.33787C7.12642 9.33787 7.49975 9.7112 7.49975 10.1712C7.49975 10.6312 7.12642 11.0045 6.66642 11.0045ZM15.8923 4.2787C13.9889 2.37537 11.3548 1.5262 8.66392 1.94204C5.26642 2.47204 2.44975 5.20871 1.81392 8.59787C1.50809 10.2295 1.68392 11.8912 2.32309 13.402C2.40475 13.5937 2.42975 13.7737 2.39725 13.9345L1.68309 17.5079C1.62809 17.7812 1.71392 18.0637 1.91059 18.2604C2.06809 18.4179 2.28059 18.5045 2.49975 18.5045C2.55392 18.5045 2.60892 18.4995 2.66309 18.4879L6.23225 17.7745C6.43725 17.7354 6.63642 17.7929 6.76892 17.8479C8.28059 18.487 9.94226 18.662 11.5731 18.357C14.9623 17.7212 17.6989 14.9045 18.2289 11.507C18.6481 8.81704 17.7964 6.18287 15.8923 4.2787Z" fill="white"/>
</mask>
<g mask="url(#mask0_1_1928)">
<rect y="0.171875" width="20" height="20" fill="black" fill-opacity="0.4"/>
</g>
</svg>
