<svg width="23" height="23" viewBox="0 0 23 23" fill="none" xmlns="http://www.w3.org/2000/svg">
<g opacity="0.8">
<path fill-rule="evenodd" clip-rule="evenodd" d="M15.3334 10.5416C15.3334 12.6557 13.6141 14.375 11.5 14.375C9.38594 14.375 7.66669 12.6557 7.66669 10.5416V5.74996C7.66669 3.63588 9.38594 1.91663 11.5 1.91663C13.6141 1.91663 15.3334 3.63588 15.3334 5.74996V10.5416ZM17.25 9.58329C17.78 9.58329 18.2084 10.0126 18.2084 10.5416C18.2084 13.915 15.7042 16.7056 12.4584 17.1733V19.1666H14.4756C14.9481 19.1666 15.3334 19.5519 15.3334 20.0243V20.2256C15.3334 20.698 14.9481 21.0833 14.4756 21.0833H8.5244C8.05194 21.0833 7.66669 20.698 7.66669 20.2256V20.0243C7.66669 19.5519 8.05194 19.1666 8.5244 19.1666H10.5417V17.1733C7.29581 16.7056 4.79169 13.915 4.79169 10.5416C4.79169 10.0126 5.22006 9.58329 5.75002 9.58329C6.27998 9.58329 6.70835 10.0126 6.70835 10.5416C6.70835 13.1838 8.8579 15.3333 11.5 15.3333C14.1421 15.3333 16.2917 13.1838 16.2917 10.5416C16.2917 10.0126 16.7201 9.58329 17.25 9.58329Z" fill="white"/>
<mask id="mask0_1_1404" style="mask-type:luminance" maskUnits="userSpaceOnUse" x="4" y="1" width="15" height="21">
<path fill-rule="evenodd" clip-rule="evenodd" d="M15.3334 10.5416C15.3334 12.6557 13.6141 14.375 11.5 14.375C9.38594 14.375 7.66669 12.6557 7.66669 10.5416V5.74996C7.66669 3.63588 9.38594 1.91663 11.5 1.91663C13.6141 1.91663 15.3334 3.63588 15.3334 5.74996V10.5416ZM17.25 9.58329C17.78 9.58329 18.2084 10.0126 18.2084 10.5416C18.2084 13.915 15.7042 16.7056 12.4584 17.1733V19.1666H14.4756C14.9481 19.1666 15.3334 19.5519 15.3334 20.0243V20.2256C15.3334 20.698 14.9481 21.0833 14.4756 21.0833H8.5244C8.05194 21.0833 7.66669 20.698 7.66669 20.2256V20.0243C7.66669 19.5519 8.05194 19.1666 8.5244 19.1666H10.5417V17.1733C7.29581 16.7056 4.79169 13.915 4.79169 10.5416C4.79169 10.0126 5.22006 9.58329 5.75002 9.58329C6.27998 9.58329 6.70835 10.0126 6.70835 10.5416C6.70835 13.1838 8.8579 15.3333 11.5 15.3333C14.1421 15.3333 16.2917 13.1838 16.2917 10.5416C16.2917 10.0126 16.7201 9.58329 17.25 9.58329Z" fill="white"/>
</mask>
<g mask="url(#mask0_1_1404)">
<rect width="23" height="23" fill="white"/>
</g>
</g>
</svg>
