<svg width="21" height="21" viewBox="0 0 21 21" fill="none" xmlns="http://www.w3.org/2000/svg">
<path d="M13.9603 2.49481H6.97692C3.94359 2.49481 2.13525 4.30315 2.13525 7.33648V14.3115C2.13525 17.3531 3.94359 19.1615 6.97692 19.1615H13.9519C16.9853 19.1615 18.7936 17.3531 18.7936 14.3198V7.33648C18.8019 4.30315 16.9936 2.49481 13.9603 2.49481ZM6.30192 11.9198C5.70192 11.9198 5.21025 11.4281 5.21025 10.8281C5.21025 10.2281 5.70192 9.73648 6.30192 9.73648C6.90192 9.73648 7.39359 10.2281 7.39359 10.8281C7.39359 11.4281 6.90192 11.9198 6.30192 11.9198ZM10.4686 11.9198C9.86859 11.9198 9.37692 11.4281 9.37692 10.8281C9.37692 10.2281 9.86859 9.73648 10.4686 9.73648C11.0686 9.73648 11.5603 10.2281 11.5603 10.8281C11.5603 11.4281 11.0686 11.9198 10.4686 11.9198ZM14.6353 11.9198C14.0353 11.9198 13.5436 11.4281 13.5436 10.8281C13.5436 10.2281 14.0353 9.73648 14.6353 9.73648C15.2353 9.73648 15.7269 10.2281 15.7269 10.8281C15.7269 11.4281 15.2353 11.9198 14.6353 11.9198Z" fill="white"/>
</svg>
