<svg width="21" height="21" viewBox="0 0 21 21" fill="none" xmlns="http://www.w3.org/2000/svg">
<path fill-rule="evenodd" clip-rule="evenodd" d="M7.96859 9.99479C9.80692 9.99479 11.3019 8.49979 11.3019 6.66146C11.3019 4.82312 9.80692 3.32812 7.96859 3.32812C6.13025 3.32812 4.63525 4.82312 4.63525 6.66146C4.63525 8.49979 6.13025 9.99479 7.96859 9.99479ZM14.6353 11.6615C16.0136 11.6615 17.1353 10.5398 17.1353 9.16146C17.1353 7.78313 16.0136 6.66146 14.6353 6.66146C13.2569 6.66146 12.1353 7.78313 12.1353 9.16146C12.1353 10.5398 13.2569 11.6615 14.6353 11.6615ZM18.8019 16.6615C18.8019 17.1215 18.4294 17.4948 17.9686 17.4948H13.8019C13.8019 17.9548 13.4294 18.3281 12.9686 18.3281H2.96859C2.50775 18.3281 2.13525 17.9548 2.13525 17.4948C2.13525 14.2781 4.75275 11.6615 7.96859 11.6615C9.57442 11.6615 11.0294 12.314 12.0853 13.3665C12.8094 12.8065 13.7011 12.4948 14.6353 12.4948C16.9328 12.4948 18.8019 14.364 18.8019 16.6615Z" fill="#2A2A2A"/>
<mask id="mask0_1_1603" style="mask-type:luminance" maskUnits="userSpaceOnUse" x="2" y="3" width="17" height="16">
<path fill-rule="evenodd" clip-rule="evenodd" d="M7.96859 9.99479C9.80692 9.99479 11.3019 8.49979 11.3019 6.66146C11.3019 4.82312 9.80692 3.32812 7.96859 3.32812C6.13025 3.32812 4.63525 4.82312 4.63525 6.66146C4.63525 8.49979 6.13025 9.99479 7.96859 9.99479ZM14.6353 11.6615C16.0136 11.6615 17.1353 10.5398 17.1353 9.16146C17.1353 7.78313 16.0136 6.66146 14.6353 6.66146C13.2569 6.66146 12.1353 7.78313 12.1353 9.16146C12.1353 10.5398 13.2569 11.6615 14.6353 11.6615ZM18.8019 16.6615C18.8019 17.1215 18.4294 17.4948 17.9686 17.4948H13.8019C13.8019 17.9548 13.4294 18.3281 12.9686 18.3281H2.96859C2.50775 18.3281 2.13525 17.9548 2.13525 17.4948C2.13525 14.2781 4.75275 11.6615 7.96859 11.6615C9.57442 11.6615 11.0294 12.314 12.0853 13.3665C12.8094 12.8065 13.7011 12.4948 14.6353 12.4948C16.9328 12.4948 18.8019 14.364 18.8019 16.6615Z" fill="white"/>
</mask>
<g mask="url(#mask0_1_1603)">
<rect x="0.46875" y="0.828125" width="20" height="20" fill="#2A2A2A"/>
</g>
</svg>
