<svg width="20" height="21" viewBox="0 0 20 21" fill="none" xmlns="http://www.w3.org/2000/svg">
<path d="M14.9193 2.48828H5.08094C3.71996 2.48828 2.62134 3.5787 2.62134 4.92328V13.868C2.62134 15.2126 3.71996 16.3112 5.08094 16.3112H5.70403C6.35173 16.3112 6.98302 16.5654 7.44215 17.0245L8.84412 18.4101C9.48362 19.0414 10.5166 19.0414 11.1561 18.4101L12.5581 17.0245C13.0172 16.5654 13.6485 16.3112 14.2962 16.3112H14.9193C16.2803 16.3112 17.3789 15.2126 17.3789 13.868V4.92328C17.3789 3.5787 16.2803 2.48828 14.9193 2.48828ZM10.0001 5.39881C10.8856 5.39881 11.5989 6.12029 11.5989 6.99754C11.5989 7.8666 10.9102 8.56349 10.0575 8.59628C10.0247 8.59628 9.97553 8.59628 9.93454 8.59628C9.07368 8.56349 8.39319 7.8666 8.39319 6.99754C8.40139 6.12029 9.11468 5.39881 10.0001 5.39881ZM12.2548 12.8924C11.0168 13.7204 8.9835 13.7204 7.7455 12.8924C6.65508 12.1709 6.65508 10.9739 7.7455 10.2442C8.9917 9.41615 11.025 9.41615 12.2548 10.2442C13.3452 10.9739 13.3452 12.1627 12.2548 12.8924Z" fill="black" fill-opacity="0.7"/>
</svg>
