<svg width="18" height="18" viewBox="0 0 18 18" fill="none" xmlns="http://www.w3.org/2000/svg">
<path fill-rule="evenodd" clip-rule="evenodd" d="M7.5 3.75C8.32725 3.75 9 4.42275 9 5.25C9 6.07725 8.32725 6.75 7.5 6.75C6.67275 6.75 6 6.07725 6 5.25C6 4.42275 6.67275 3.75 7.5 3.75ZM7.5 8.25C9.1545 8.25 10.5 6.9045 10.5 5.25C10.5 3.5955 9.1545 2.25 7.5 2.25C5.8455 2.25 4.5 3.5955 4.5 5.25C4.5 6.9045 5.8455 8.25 7.5 8.25ZM7.5 9.75C4.60575 9.75 2.25 12.105 2.25 15C2.25 15.414 2.58525 15.75 3 15.75C3.41475 15.75 3.75 15.414 3.75 15C3.75 12.9323 5.43225 11.25 7.5 11.25C9.56775 11.25 11.25 12.9323 11.25 15C11.25 15.414 11.5852 15.75 12 15.75C12.4148 15.75 12.75 15.414 12.75 15C12.75 12.105 10.3942 9.75 7.5 9.75ZM15 4.5H15.75C16.1625 4.5 16.5 4.8375 16.5 5.25C16.5 5.6625 16.1625 6 15.75 6H15V6.75C15 7.1625 14.6625 7.5 14.25 7.5C13.8375 7.5 13.5 7.1625 13.5 6.75V6H12.75C12.3375 6 12 5.6625 12 5.25C12 4.8375 12.3375 4.5 12.75 4.5H13.5V3.75C13.5 3.3375 13.8375 3 14.25 3C14.6625 3 15 3.3375 15 3.75V4.5Z" fill="white" fill-opacity="0.6"/>
<mask id="mask0_3253_2258" style="mask-type:luminance" maskUnits="userSpaceOnUse" x="2" y="2" width="15" height="14">
<path fill-rule="evenodd" clip-rule="evenodd" d="M7.5 3.75C8.32725 3.75 9 4.42275 9 5.25C9 6.07725 8.32725 6.75 7.5 6.75C6.67275 6.75 6 6.07725 6 5.25C6 4.42275 6.67275 3.75 7.5 3.75ZM7.5 8.25C9.1545 8.25 10.5 6.9045 10.5 5.25C10.5 3.5955 9.1545 2.25 7.5 2.25C5.8455 2.25 4.5 3.5955 4.5 5.25C4.5 6.9045 5.8455 8.25 7.5 8.25ZM7.5 9.75C4.60575 9.75 2.25 12.105 2.25 15C2.25 15.414 2.58525 15.75 3 15.75C3.41475 15.75 3.75 15.414 3.75 15C3.75 12.9323 5.43225 11.25 7.5 11.25C9.56775 11.25 11.25 12.9323 11.25 15C11.25 15.414 11.5852 15.75 12 15.75C12.4148 15.75 12.75 15.414 12.75 15C12.75 12.105 10.3942 9.75 7.5 9.75ZM15 4.5H15.75C16.1625 4.5 16.5 4.8375 16.5 5.25C16.5 5.6625 16.1625 6 15.75 6H15V6.75C15 7.1625 14.6625 7.5 14.25 7.5C13.8375 7.5 13.5 7.1625 13.5 6.75V6H12.75C12.3375 6 12 5.6625 12 5.25C12 4.8375 12.3375 4.5 12.75 4.5H13.5V3.75C13.5 3.3375 13.8375 3 14.25 3C14.6625 3 15 3.3375 15 3.75V4.5Z" fill="white"/>
</mask>
<g mask="url(#mask0_3253_2258)">
<rect width="18" height="18" fill="white" fill-opacity="0.6"/>
</g>
</svg>
