<svg width="21" height="21" viewBox="0 0 21 21" fill="none" xmlns="http://www.w3.org/2000/svg">
<path d="M16.9936 8.07804L13.2186 4.30304C12.427 3.51138 11.3353 3.08638 10.2186 3.14471L6.05198 3.34471C4.38531 3.41971 3.06031 4.74471 2.97698 6.40304L2.77698 10.5697C2.72698 11.6864 3.14365 12.778 3.93531 13.5697L7.71031 17.3447C9.26031 18.8947 11.777 18.8947 13.3353 17.3447L16.9936 13.6864C18.552 12.1447 18.552 9.62804 16.9936 8.07804ZM8.38531 11.1447C7.06865 11.1447 5.98531 10.0697 5.98531 8.74471C5.98531 7.41971 7.06865 6.34471 8.38531 6.34471C9.70198 6.34471 10.7853 7.41971 10.7853 8.74471C10.7853 10.0697 9.70198 11.1447 8.38531 11.1447ZM15.077 12.103L11.7436 15.4364C11.6186 15.5614 11.4603 15.6197 11.302 15.6197C11.1436 15.6197 10.9853 15.5614 10.8603 15.4364C10.6186 15.1947 10.6186 14.7947 10.8603 14.553L14.1936 11.2197C14.4353 10.978 14.8353 10.978 15.077 11.2197C15.3186 11.4614 15.3186 11.8614 15.077 12.103Z" fill="white"/>
</svg>
