<svg width="21" height="21" viewBox="0 0 21 21" fill="none" xmlns="http://www.w3.org/2000/svg">
<path d="M15.4687 2.49475H5.46875C4.08542 2.49475 2.96875 3.60308 2.96875 4.96975V14.0614C2.96875 15.4281 4.08542 16.5448 5.46875 16.5448H6.10208C6.76042 16.5448 7.40208 16.8031 7.86875 17.2697L9.29375 18.6781C9.94375 19.3197 10.9937 19.3197 11.6437 18.6781L13.0687 17.2697C13.5354 16.8031 14.1771 16.5448 14.8354 16.5448H15.4687C16.8521 16.5448 17.9687 15.4281 17.9687 14.0614V4.96975C17.9687 3.60308 16.8521 2.49475 15.4687 2.49475ZM10.4687 5.45308C11.3687 5.45308 12.0937 6.18642 12.0937 7.07808C12.0937 7.96142 11.3937 8.66975 10.5271 8.70308C10.4937 8.70308 10.4437 8.70308 10.4021 8.70308C9.52708 8.66975 8.83542 7.96142 8.83542 7.07808C8.84375 6.18642 9.56875 5.45308 10.4687 5.45308ZM12.7604 13.0697C11.5021 13.9114 9.43542 13.9114 8.17708 13.0697C7.06875 12.3364 7.06875 11.1198 8.17708 10.3781C9.44375 9.53642 11.5104 9.53642 12.7604 10.3781C13.8687 11.1198 13.8687 12.3281 12.7604 13.0697Z" fill="white"/>
</svg>
