<svg width="24" height="24" viewBox="0 0 24 24" fill="none" xmlns="http://www.w3.org/2000/svg">
<path d="M9.56395 19.9507C9.56395 19.301 10.0906 18.7743 10.7403 18.7743H21.6054C22.255 18.7743 22.7817 19.301 22.7817 19.9507C22.7817 20.6004 22.255 21.127 21.6054 21.127H10.7403C10.0906 21.127 9.56395 20.6004 9.56395 19.9507Z" fill="white"/>
<path d="M9.56395 12.4722C9.56395 11.8225 10.0906 11.2958 10.7403 11.2958H21.6054C22.255 11.2958 22.7817 11.8225 22.7817 12.4722C22.7817 13.1219 22.255 13.6485 21.6054 13.6485H10.7403C10.0906 13.6485 9.56395 13.1219 9.56395 12.4722Z" fill="white"/>
<path d="M9.56395 4.90085C9.56395 4.25118 10.0906 3.72451 10.7403 3.72451H21.6054C22.255 3.72451 22.7817 4.25118 22.7817 4.90085C22.7817 5.55052 22.255 6.07719 21.6054 6.07719H10.7403C10.0906 6.07719 9.56395 5.55052 9.56395 4.90085Z" fill="white"/>
<path d="M6.14188 19.9721C6.14188 21.106 5.22262 22.0253 4.08864 22.0253C2.95467 22.0253 2.0354 21.106 2.0354 19.9721C2.0354 18.8381 2.95467 17.9188 4.08864 17.9188C5.22262 17.9188 6.14188 18.8381 6.14188 19.9721Z" fill="white"/>
<path fill-rule="evenodd" clip-rule="evenodd" d="M4.32569 7.70262C3.88952 7.90792 3.35324 7.83032 2.99274 7.46982L1.5672 6.04428C1.10781 5.58489 1.10781 4.84007 1.5672 4.38069C2.02659 3.9213 2.7714 3.9213 3.23079 4.38069L3.81581 4.96571L6.39581 2.32498C6.84982 1.86028 7.59459 1.85161 8.05929 2.30562C8.52399 2.75964 8.53265 3.5044 8.07864 3.9691L4.66962 7.45837C4.56752 7.56287 4.45071 7.64432 4.32569 7.70262Z" fill="white"/>
<path fill-rule="evenodd" clip-rule="evenodd" d="M4.32569 15.274C3.88952 15.4793 3.35324 15.4017 2.99274 15.0412L1.5672 13.6156C1.10781 13.1562 1.10781 12.4114 1.5672 11.952C2.02659 11.4926 2.7714 11.4926 3.23079 11.952L3.81581 12.537L6.39581 9.89631C6.84982 9.43161 7.59459 9.42294 8.05929 9.87696C8.52399 10.331 8.53265 11.0757 8.07864 11.5404L4.66962 15.0297C4.56752 15.1342 4.45071 15.2156 4.32569 15.274Z" fill="white"/>
</svg>
