<svg width="20" height="20" viewBox="0 0 20 20" fill="none" xmlns="http://www.w3.org/2000/svg">
<path fill-rule="evenodd" clip-rule="evenodd" d="M10.0002 5.83333C10.9202 5.83333 11.6668 5.08667 11.6668 4.16667C11.6668 3.24667 10.9202 2.5 10.0002 2.5C9.08016 2.5 8.3335 3.24667 8.3335 4.16667C8.3335 5.08667 9.08016 5.83333 10.0002 5.83333ZM10.0002 8.33333C9.08016 8.33333 8.3335 9.08 8.3335 10C8.3335 10.92 9.08016 11.6667 10.0002 11.6667C10.9202 11.6667 11.6668 10.92 11.6668 10C11.6668 9.08 10.9202 8.33333 10.0002 8.33333ZM8.3335 15.8333C8.3335 14.9133 9.08016 14.1667 10.0002 14.1667C10.9202 14.1667 11.6668 14.9133 11.6668 15.8333C11.6668 16.7533 10.9202 17.5 10.0002 17.5C9.08016 17.5 8.3335 16.7533 8.3335 15.8333Z" fill="black" fill-opacity="0.4"/>
<mask id="mask0_1_1663" style="mask-type:luminance" maskUnits="userSpaceOnUse" x="8" y="2" width="4" height="16">
<path fill-rule="evenodd" clip-rule="evenodd" d="M10.0002 5.83333C10.9202 5.83333 11.6668 5.08667 11.6668 4.16667C11.6668 3.24667 10.9202 2.5 10.0002 2.5C9.08016 2.5 8.3335 3.24667 8.3335 4.16667C8.3335 5.08667 9.08016 5.83333 10.0002 5.83333ZM10.0002 8.33333C9.08016 8.33333 8.3335 9.08 8.3335 10C8.3335 10.92 9.08016 11.6667 10.0002 11.6667C10.9202 11.6667 11.6668 10.92 11.6668 10C11.6668 9.08 10.9202 8.33333 10.0002 8.33333ZM8.3335 15.8333C8.3335 14.9133 9.08016 14.1667 10.0002 14.1667C10.9202 14.1667 11.6668 14.9133 11.6668 15.8333C11.6668 16.7533 10.9202 17.5 10.0002 17.5C9.08016 17.5 8.3335 16.7533 8.3335 15.8333Z" fill="white"/>
</mask>
<g mask="url(#mask0_1_1663)">
</g>
</svg>
