<svg width="20" height="20" viewBox="0 0 20 20" fill="none" xmlns="http://www.w3.org/2000/svg">
<path fill-rule="evenodd" clip-rule="evenodd" d="M13.5795 8.00461L9.77283 13.0046C9.61616 13.2104 9.37366 13.3321 9.11533 13.3338H9.10949C8.85366 13.3338 8.61199 13.2154 8.45366 13.0138L6.42699 10.4246C6.14366 10.0629 6.20699 9.53878 6.56949 9.25545C6.93116 8.97128 7.45616 9.03461 7.73949 9.39795L9.10033 11.1363L12.2537 6.99545C12.532 6.62961 13.0545 6.55795 13.422 6.83711C13.7878 7.11628 13.8587 7.63878 13.5795 8.00461ZM10.0003 1.66711C5.39783 1.66711 1.66699 5.39795 1.66699 10.0004C1.66699 14.6021 5.39783 18.3338 10.0003 18.3338C14.6028 18.3338 18.3337 14.6021 18.3337 10.0004C18.3337 5.39795 14.6028 1.66711 10.0003 1.66711Z" fill="#0094FF"/>
<mask id="mask0_1_1909" style="mask-type:luminance" maskUnits="userSpaceOnUse" x="1" y="1" width="18" height="18">
<path fill-rule="evenodd" clip-rule="evenodd" d="M13.5795 8.00461L9.77283 13.0046C9.61616 13.2104 9.37366 13.3321 9.11533 13.3338H9.10949C8.85366 13.3338 8.61199 13.2154 8.45366 13.0138L6.42699 10.4246C6.14366 10.0629 6.20699 9.53878 6.56949 9.25545C6.93116 8.97128 7.45616 9.03461 7.73949 9.39795L9.10033 11.1363L12.2537 6.99545C12.532 6.62961 13.0545 6.55795 13.422 6.83711C13.7878 7.11628 13.8587 7.63878 13.5795 8.00461ZM10.0003 1.66711C5.39783 1.66711 1.66699 5.39795 1.66699 10.0004C1.66699 14.6021 5.39783 18.3338 10.0003 18.3338C14.6028 18.3338 18.3337 14.6021 18.3337 10.0004C18.3337 5.39795 14.6028 1.66711 10.0003 1.66711Z" fill="white"/>
</mask>
<g mask="url(#mask0_1_1909)">
<rect width="20" height="20" fill="#0094FF"/>
</g>
</svg>
