<svg width="20" height="21" viewBox="0 0 20 21" fill="none" xmlns="http://www.w3.org/2000/svg">
<path fill-rule="evenodd" clip-rule="evenodd" d="M13.3333 14.1927C13.3333 14.651 12.9583 15.026 12.5 15.026C12.0417 15.026 11.6667 14.651 11.6667 14.1927V10.8594C11.6667 10.401 12.0417 10.026 12.5 10.026C12.9583 10.026 13.3333 10.401 13.3333 10.8594V14.1927ZM8.33333 4.46604C8.33333 4.33688 8.51167 4.19271 8.75 4.19271H11.25C11.4883 4.19271 11.6667 4.33688 11.6667 4.46604V5.85938H8.33333V4.46604ZM8.33333 14.1927C8.33333 14.651 7.95833 15.026 7.5 15.026C7.04167 15.026 6.66667 14.651 6.66667 14.1927V10.8594C6.66667 10.401 7.04167 10.026 7.5 10.026C7.95833 10.026 8.33333 10.401 8.33333 10.8594V14.1927ZM17.5001 5.8594H16.6667H13.3334V4.46606C13.3334 3.39606 12.3992 2.52606 11.2501 2.52606H8.75008C7.60091 2.52606 6.66675 3.39606 6.66675 4.46606V5.8594H3.33341H2.50008C2.04175 5.8594 1.66675 6.2344 1.66675 6.69273C1.66675 7.15106 2.04175 7.52606 2.50008 7.52606H3.33341V16.6927C3.33341 18.0711 4.45508 19.1927 5.83341 19.1927H14.1667C15.5451 19.1927 16.6667 18.0711 16.6667 16.6927V7.52606H17.5001C17.9584 7.52606 18.3334 7.15106 18.3334 6.69273C18.3334 6.2344 17.9584 5.8594 17.5001 5.8594Z" fill="#FF6161"/>
<mask id="mask0_1_1922" style="mask-type:luminance" maskUnits="userSpaceOnUse" x="1" y="2" width="18" height="18">
<path fill-rule="evenodd" clip-rule="evenodd" d="M13.3333 14.1927C13.3333 14.651 12.9583 15.026 12.5 15.026C12.0417 15.026 11.6667 14.651 11.6667 14.1927V10.8594C11.6667 10.401 12.0417 10.026 12.5 10.026C12.9583 10.026 13.3333 10.401 13.3333 10.8594V14.1927ZM8.33333 4.46604C8.33333 4.33688 8.51167 4.19271 8.75 4.19271H11.25C11.4883 4.19271 11.6667 4.33688 11.6667 4.46604V5.85938H8.33333V4.46604ZM8.33333 14.1927C8.33333 14.651 7.95833 15.026 7.5 15.026C7.04167 15.026 6.66667 14.651 6.66667 14.1927V10.8594C6.66667 10.401 7.04167 10.026 7.5 10.026C7.95833 10.026 8.33333 10.401 8.33333 10.8594V14.1927ZM17.5001 5.8594H16.6667H13.3334V4.46606C13.3334 3.39606 12.3992 2.52606 11.2501 2.52606H8.75008C7.60091 2.52606 6.66675 3.39606 6.66675 4.46606V5.8594H3.33341H2.50008C2.04175 5.8594 1.66675 6.2344 1.66675 6.69273C1.66675 7.15106 2.04175 7.52606 2.50008 7.52606H3.33341V16.6927C3.33341 18.0711 4.45508 19.1927 5.83341 19.1927H14.1667C15.5451 19.1927 16.6667 18.0711 16.6667 16.6927V7.52606H17.5001C17.9584 7.52606 18.3334 7.15106 18.3334 6.69273C18.3334 6.2344 17.9584 5.8594 17.5001 5.8594Z" fill="white"/>
</mask>
<g mask="url(#mask0_1_1922)">
<rect y="0.859375" width="20" height="20" fill="#FF6161"/>
</g>
</svg>
